# xmcd CD database file
#
# Track frame offsets:
#	150
#	20733
#	40789
#	70982
#	88787
#	117169
#	134415
#	152352
#	173039
#	188039
#	205216
#	221189
#	241573
#
# Disc length: 3592 seconds
#
# Revision: 0
# Processed by: cddbd v1.5.1PL0 Copyright (c) Steve Scherf et al.
# Submitted via: CDex 1.51
#
DISCID=af0e060d
DTITLE=Clare Fisher - Memento
DYEAR=1992
DGENRE=Jazz
TTITLE0=Basic Blues
TTITLE1=A Long Time Ago
TTITLE2=Blues Bossa
TTITLE3=Preludio
TTITLE4=If You Could See Me Now
TTITLE5=Fugue
TTITLE6=Blues In G
TTITLE7=My First Waltz
TTITLE8=Giant Steps
TTITLE9=Old Folks
TTITLE10=Jeru
TTITLE11=Pat's Blues
TTITLE12=Memento
EXTD=YEAR: 1992
EXTT0=
EXTT1=
EXTT2=
EXTT3=
EXTT4=
EXTT5=
EXTT6=
EXTT7=
EXTT8=
EXTT9=
EXTT10=
EXTT11=
EXTT12=
PLAYORDER=
